<svg width="538" height="470" viewBox="0 0 538 470" fill="none" xmlns="http://www.w3.org/2000/svg">
<g clip-path="url(#clip0_107_2)">
<mask id="mask0_107_2" style="mask-type:alpha" maskUnits="userSpaceOnUse" x="-194" y="-200" width="732" height="670">
<path d="M-194 -199.02H538V470H-194V-199.02Z" fill="#D9D9D9"/>
</mask>
<g mask="url(#mask0_107_2)">
<g filter="url(#filter0_d_107_2)">
<path d="M154.852 54.1681L28.8061 238.183C14.398 259.175 14.398 285.056 28.8061 306.034L154.852 490.16C169.146 511.138 195.784 523.97 224.492 523.97H476.585C505.292 523.97 531.816 511.133 546.229 490.16L672.276 306.03C686.575 285.056 686.575 259.175 672.276 238.179L546.229 54.1635C531.816 33.1904 505.297 20.2383 476.585 20.2383H224.492C195.784 20.2383 169.146 33.1905 154.852 54.1636V54.1681ZM72.0848 272.127C72.0848 247.499 95.7662 227.554 124.947 227.554C154.128 227.554 347.832 271.521 350.495 272.109L350.516 272.127C350.516 272.127 154.15 316.7 124.947 316.7C95.7444 316.7 72.0848 296.732 72.0848 272.127ZM211.298 475.445C186.016 463.14 177.358 435.872 191.945 414.555C206.403 393.449 347.717 274.506 350.489 272.182C349.7 274.731 297.986 437.979 283.507 459.127C268.914 480.445 236.575 487.744 211.292 475.445H211.298ZM628.926 272.146C628.926 296.75 605.266 316.718 576.064 316.718C546.861 316.718 353.582 272.83 350.56 272.164C352.749 274.028 494.581 393.407 509.082 414.555C523.675 435.872 515.012 463.14 489.729 475.445C464.425 487.749 432.108 480.445 417.515 459.127C402.992 437.961 351.235 274.409 350.533 272.164L350.511 272.146C350.511 272.146 546.877 227.573 576.058 227.573C605.239 227.573 628.921 247.523 628.921 272.146H628.926ZM489.735 68.8099C515.017 81.133 523.675 108.382 509.087 129.7C494.586 150.843 352.754 270.245 350.544 272.109C351.241 269.863 403.003 106.293 417.525 85.1274C432.119 63.8099 464.436 56.5097 489.74 68.8145L489.735 68.8099ZM283.513 85.1228C297.992 106.27 349.705 269.537 350.495 272.086C347.723 269.768 206.408 150.802 191.951 129.695C177.358 108.378 186.021 81.1284 211.303 68.8052C236.586 56.5006 268.925 63.8054 283.518 85.1183L283.513 85.1228Z" fill="#F0D8A8" fill-opacity="0.1"/>
</g>
</g>
</g>
<defs>
<filter id="filter0_d_107_2" x="-12" y="-4.76172" width="725" height="563.732" filterUnits="userSpaceOnUse" color-interpolation-filters="sRGB">
<feFlood flood-opacity="0" result="BackgroundImageFix"/>
<feColorMatrix in="SourceAlpha" type="matrix" values="0 0 0 0 0 0 0 0 0 0 0 0 0 0 0 0 0 0 127 0" result="hardAlpha"/>
<feOffset dy="5"/>
<feGaussianBlur stdDeviation="15"/>
<feComposite in2="hardAlpha" operator="out"/>
<feColorMatrix type="matrix" values="0 0 0 0 0 0 0 0 0 0 0 0 0 0 0 0 0 0 0.2 0"/>
<feBlend mode="normal" in2="BackgroundImageFix" result="effect1_dropShadow_107_2"/>
<feBlend mode="normal" in="SourceGraphic" in2="effect1_dropShadow_107_2" result="shape"/>
</filter>
<clipPath id="clip0_107_2">
<rect width="538" height="470" fill="white"/>
</clipPath>
</defs>
</svg>
